<?xml version="1.0" encoding="utf-8"?>
<!-- Generator: Adobe Illustrator 21.1.0, SVG Export Plug-In . SVG Version: 6.00 Build 0)  -->
<svg version="1.1" id="Layer_1" xmlns="http://www.w3.org/2000/svg" xmlns:xlink="http://www.w3.org/1999/xlink" x="0px" y="0px"
	 viewBox="0 0 52.9 52.9" style="enable-background:new 0 0 52.9 52.9;" xml:space="preserve">
<style type="text/css">
	.st0{fill:#1ABC9C;}
</style>
<title>no_pesticides</title>
<g id="Layer_2">
	<g id="Layer_1-2">
		<path class="st0" d="M26.5,0c0.4,0,0.9,0,1.3,0c0.9,0,1.8,0.1,2.8,0.3c2.3,0.4,4.6,1,6.7,2c6.5,2.9,11.6,8.4,14.1,15.2
			c0.5,1.4,0.9,2.8,1.1,4.2c0.8,4,0.6,8.2-0.6,12.2c-0.4,1.4-0.9,2.8-1.5,4.1c-2.8,5.9-7.7,10.5-13.7,13c-1.6,0.7-3.3,1.2-5,1.5
			c-3.4,0.7-6.9,0.7-10.3,0C10.2,50.2,1.8,41.2,0.2,30c-0.4-2.8-0.3-5.6,0.2-8.4c0.7-4,2.4-7.8,4.9-11.1c1.8-2.4,4-4.4,6.4-6.1
			C14,2.9,16.5,1.8,19.1,1c1.1-0.3,2.2-0.6,3.3-0.7c0.9-0.2,1.8-0.3,2.8-0.3c0.4,0,0.8,0,1.3,0H26.5L26.5,0z M44,12.8L12.8,44
			c0.5,0.4,1.1,0.8,1.7,1.2c10.4,6.6,24.2,3.6,30.8-6.8c0.5-0.7,0.9-1.5,1.3-2.3c1-2,1.7-4.2,2-6.5c0.3-2.4,0.3-4.9-0.2-7.3
			c-0.4-2-1-3.9-1.9-5.7C45.8,15.3,45,14,44,12.8L44,12.8L44,12.8z M41.1,9.7c-1.7-1.5-3.6-2.7-5.6-3.6c-1.8-0.8-3.7-1.4-5.6-1.7
			c-0.8-0.1-1.5-0.2-2.3-0.2h-1.1h-0.1h-1.1c-0.8,0-1.6,0.1-2.3,0.2C13.7,5.9,6.3,13.1,4.6,22.4c-0.3,1.4-0.4,2.8-0.4,4.2
			c0,4.6,1.5,9.1,4.2,12.9c0.4,0.6,0.8,1.1,1.3,1.6L41.1,9.7z"/>
		<path class="st0" d="M24.7,14.4c0.2-0.2,0.2-0.6,0-0.8c0,0,0,0,0,0l-0.8-0.8c-0.2-0.2-0.6-0.2-0.8,0c0,0,0,0,0,0L21.7,14
			c-0.2,0.2-0.2,0.6,0,0.8c0,0,0,0,0,0l0.8,0.8c0.2,0.2,0.6,0.2,0.8,0c0,0,0,0,0,0L24.7,14.4L24.7,14.4z"/>
		<path class="st0" d="M23.4,14.6c0.1-0.1,0.1-0.2,0-0.3l-0.3-0.3c-0.1-0.1-0.2-0.1-0.3,0L21,15.9c-0.1,0.1-0.1,0.2,0,0.3l0.3,0.3
			c0.1,0.1,0.2,0.1,0.3,0L23.4,14.6z"/>
		<path class="st0" d="M23.7,18.3c0.1-0.1,0.1-0.3,0-0.5c0,0,0,0,0,0l-4.1-4.1c-0.1-0.1-0.3-0.1-0.5,0c0,0,0,0,0,0l-0.5,0.5
			c-0.1,0.1-0.1,0.3,0,0.5c0,0,0,0,0,0l4.1,4.1c0.1,0.1,0.3,0.1,0.5,0c0,0,0,0,0,0C23.2,18.8,23.7,18.3,23.7,18.3z"/>
		<path class="st0" d="M22.3,23.4c1.1-1.1,1.1-2.9,0-4.1c0,0,0,0,0,0l-4.1-4c-1.1-1.1-2.9-1.1-4.1,0c0,0,0,0,0,0L2,27.5
			c-1.1,1.1-1.1,2.9,0,4.1c0,0,0,0,0,0l4.1,4c1.1,1.1,2.9,1.1,4.1,0c0,0,0,0,0,0L22.3,23.4z M15.8,21.7L14,28.1l-4.6-4.5L15.8,21.7z
			"/>
		<path class="st0" d="M27.6,15.6L27.6,15.6c0.1,0.1,0.1,0.2,0.1,0.4c0,0.1,0,0.3,0,0.4c0,0.1-0.1,0.2-0.2,0.4
			c-0.1,0.1-0.1,0.1-0.2,0.2c-0.1,0-0.1,0.1-0.2,0.1c-0.1,0-0.2,0-0.3,0h-0.1l0,0h-0.1c-0.1,0-0.2-0.1-0.3-0.2
			c-0.1-0.1-0.1-0.1-0.1-0.2c-0.1-0.1-0.1-0.2-0.1-0.4c0-0.1,0-0.3,0.1-0.4c0-0.1,0.1-0.1,0.1-0.2c0.1-0.1,0.1-0.2,0.2-0.2
			c0.2-0.1,0.3-0.2,0.5-0.1h0.1l0,0h0.1c0.1,0,0.1,0.1,0.2,0.1l0.1,0.1L27.6,15.6L27.6,15.6z M30.9,16.4L30.9,16.4
			c0.1,0.1,0.1,0.2,0.1,0.4c0,0.1,0,0.2,0,0.2c0,0.1-0.1,0.3-0.1,0.4c-0.1,0.1-0.2,0.2-0.3,0.3c-0.2,0.1-0.3,0.2-0.5,0.1h-0.1l0,0
			l-0.1,0c-0.2-0.1-0.3-0.2-0.4-0.4c0-0.1-0.1-0.1-0.1-0.2c0-0.1,0-0.3,0-0.4c0.1-0.3,0.3-0.6,0.7-0.6c0.1,0,0.2,0,0.3,0h0.1l0,0
			l0.1,0c0.1,0,0.1,0.1,0.2,0.1l0.1,0.1L30.9,16.4z M34.2,17.2L34.2,17.2c0.1,0.1,0.1,0.2,0.1,0.4c0,0.1,0,0.3,0,0.4
			c0,0.1-0.1,0.2-0.2,0.4c-0.1,0.1-0.1,0.1-0.2,0.2c-0.1,0-0.1,0.1-0.2,0.1c-0.1,0-0.2,0-0.3,0h-0.2l0,0h-0.1
			c-0.1,0-0.2-0.1-0.3-0.2c-0.2-0.2-0.3-0.4-0.3-0.7c0-0.1,0.1-0.3,0.1-0.4c0.1-0.1,0.2-0.2,0.3-0.3c0.2-0.1,0.3-0.2,0.5-0.1h0.2
			l0,0h0.1c0.1,0,0.1,0.1,0.2,0.1c0,0,0.1,0.1,0.1,0.1L34.2,17.2L34.2,17.2z M37.5,18.1L37.5,18.1c0.1,0.1,0.1,0.2,0.1,0.4
			c0,0.1,0,0.2,0,0.2c0,0.1-0.1,0.3-0.1,0.4c-0.1,0.1-0.2,0.2-0.3,0.3c-0.1,0-0.1,0.1-0.2,0.1c-0.1,0-0.2,0-0.3,0h-0.2l0,0h-0.1
			c-0.1,0-0.2-0.1-0.3-0.2c-0.1-0.1-0.2-0.2-0.2-0.3c0-0.1-0.1-0.3,0-0.4c0-0.1,0-0.2,0.1-0.2c0-0.1,0.1-0.1,0.1-0.2
			c0.1-0.1,0.1-0.2,0.2-0.2c0.2-0.1,0.3-0.2,0.5-0.1H37l0,0H37c0.1,0,0.1,0.1,0.2,0.1l0.1,0.1L37.5,18.1L37.5,18.1z M40.8,18.9
			L40.8,18.9c0.1,0.1,0.1,0.2,0.1,0.4c0,0.1,0,0.3,0,0.4c0,0.1-0.1,0.2-0.2,0.4c-0.1,0.1-0.2,0.2-0.4,0.3c-0.1,0-0.2,0-0.3,0h-0.2
			l0,0h-0.1c-0.2-0.1-0.4-0.2-0.5-0.5c0-0.1-0.1-0.3,0-0.4c0-0.1,0-0.2,0.1-0.2c0-0.1,0.1-0.1,0.1-0.2c0.2-0.2,0.5-0.4,0.8-0.4h0.2
			l0,0l0.2,0c0.1,0,0.1,0.1,0.2,0.1L40.8,18.9L40.8,18.9L40.8,18.9z M44.1,19.8c0,0,0.1,0.1,0.1,0.1c0,0.1,0.1,0.2,0.1,0.3
			c0,0.1,0,0.3-0.1,0.4c0,0.1-0.1,0.2-0.2,0.3C43.9,21,43.8,21,43.7,21c-0.1,0-0.1,0.1-0.2,0.1c-0.1,0-0.2,0-0.3,0h-0.1l0,0L43,21.1
			c-0.2-0.1-0.3-0.2-0.4-0.4c0-0.1-0.1-0.2-0.1-0.3c0-0.1,0-0.2,0-0.2c0-0.1,0.1-0.3,0.2-0.4c0.1-0.1,0.2-0.2,0.3-0.3
			c0.2-0.1,0.4-0.1,0.5-0.1h0.1l0,0l0.2,0c0.1,0,0.1,0.1,0.2,0.1L44.1,19.8L44.1,19.8L44.1,19.8z M47.3,20.6L47.3,20.6
			c0.1,0.1,0.1,0.2,0.1,0.4c0,0.2,0,0.3,0,0.5c0,0.1-0.1,0.2-0.2,0.3c-0.2,0.2-0.4,0.3-0.7,0.2h-0.2l0,0l-0.2,0
			c-0.2-0.1-0.3-0.2-0.4-0.4c0-0.1-0.1-0.2-0.1-0.3c0-0.1,0-0.2,0-0.2c0.1-0.3,0.2-0.5,0.5-0.6c0.1,0,0.2-0.1,0.2-0.1
			c0.1,0,0.2,0,0.3,0h0.1l0,0H47c0.1,0,0.1,0.1,0.2,0.1L47.3,20.6L47.3,20.6L47.3,20.6z"/>
		<path class="st0" d="M31.1,28.6L31.1,28.6c0,0.1,0.1,0.1,0.1,0.2c0,0,0,0.1,0.1,0.1l0,0v0.1c0,0.1,0,0.2,0,0.3
			c0,0.1-0.1,0.2-0.1,0.3c0,0.1-0.1,0.1-0.1,0.2c-0.1,0.1-0.1,0.1-0.2,0.1c-0.1,0.1-0.2,0.1-0.4,0.1c-0.1,0-0.2,0-0.4-0.1
			c-0.2-0.1-0.4-0.3-0.4-0.5l0,0v-0.1c0-0.2,0-0.4,0.1-0.5c0.1-0.2,0.2-0.3,0.4-0.4c0.2-0.1,0.4-0.1,0.5-0.1c0.1,0,0.2,0.1,0.3,0.1
			L31.1,28.6L31.1,28.6z M30.2,25.4L30.2,25.4c0,0.1,0.1,0.1,0.1,0.2c0,0,0,0.1,0,0.1l0,0c0,0.1,0,0.1,0,0.2c0,0.2,0,0.4-0.1,0.5
			c-0.1,0.1-0.1,0.2-0.2,0.2c-0.1,0.1-0.2,0.1-0.4,0.2c-0.1,0-0.3,0-0.4,0c-0.2,0-0.3-0.1-0.4-0.2c-0.1-0.1-0.1-0.2-0.2-0.3v-0.1
			l0,0c0,0,0-0.1,0-0.1c0-0.1,0-0.2,0-0.3c0-0.1,0.1-0.2,0.1-0.2c0-0.1,0.1-0.1,0.1-0.2c0.1-0.1,0.1-0.1,0.2-0.1
			c0.1,0,0.2-0.1,0.3-0.1c0.1,0,0.2,0,0.3,0c0.1,0,0.2,0.1,0.3,0.1h0.1L30.2,25.4L30.2,25.4z M29.3,22.1c0,0,0.1,0.1,0.1,0.1
			c0,0,0.1,0.1,0.1,0.1v0.1l0,0v0.1c0,0.2,0,0.4-0.1,0.5c-0.1,0.2-0.4,0.4-0.6,0.5c-0.1,0-0.2,0-0.2,0c-0.3,0-0.6-0.2-0.7-0.5
			c0,0,0-0.1-0.1-0.1l0,0c0,0,0-0.1,0-0.1c0-0.1,0-0.2,0-0.3c0-0.1,0.1-0.2,0.1-0.2c0.1-0.1,0.1-0.2,0.2-0.2
			c0.1-0.1,0.2-0.1,0.3-0.1c0.2,0,0.3,0,0.5,0c0.1,0,0.2,0.1,0.3,0.1h0.1L29.3,22.1L29.3,22.1z M28.4,18.8L28.4,18.8
			c0,0.1,0.1,0.1,0.1,0.2c0,0,0,0.1,0.1,0.1l0,0c0,0,0,0.1,0,0.1c0,0.2,0,0.4-0.1,0.5c-0.1,0.2-0.2,0.3-0.4,0.4
			c-0.1,0-0.3,0.1-0.4,0.1c-0.1,0-0.3-0.1-0.4-0.1c-0.1,0-0.1-0.1-0.2-0.1c-0.1-0.1-0.1-0.2-0.2-0.3v-0.1l0,0v-0.1
			c0-0.2,0-0.4,0.1-0.6c0-0.1,0.1-0.1,0.1-0.2c0.1-0.1,0.2-0.1,0.2-0.2c0.1,0,0.2-0.1,0.3-0.1c0.1,0,0.2,0,0.2,0
			c0.1,0,0.2,0.1,0.3,0.1L28.4,18.8L28.4,18.8L28.4,18.8z M27.6,15.5c0,0,0.1,0.1,0.1,0.1c0,0,0.1,0.1,0.1,0.1v0.1l0,0
			c0,0,0,0.1,0,0.1c0,0.2,0,0.4-0.1,0.5c-0.1,0.1-0.2,0.2-0.3,0.3C27.2,16.9,27.1,17,27,17c-0.1,0-0.2,0-0.2,0c-0.1,0-0.2,0-0.2-0.1
			c-0.1,0-0.2-0.1-0.2-0.2c-0.1-0.1-0.1-0.2-0.2-0.3v-0.1l0,0c0-0.1,0-0.1,0-0.2c0-0.1,0-0.2,0-0.3c0-0.1,0.1-0.2,0.1-0.2
			c0-0.1,0.1-0.1,0.1-0.2c0.1-0.1,0.2-0.1,0.3-0.2c0.1,0,0.2-0.1,0.3-0.1c0.1,0,0.2,0,0.2,0C27.3,15.3,27.4,15.4,27.6,15.5
			L27.6,15.5L27.6,15.5L27.6,15.5z"/>
		<path class="st0" d="M14.7,23.5L14,22.9l-1.3,1.3l0.6,0.6L14.7,23.5L14.7,23.5z"/>
		<path class="st0" d="M13.1,25.1l-0.6-0.6L12,24.9l0.6,0.6L13.1,25.1z"/>
		<path class="st0" d="M39.6,27.3C39,25.8,38,25,37.1,25s-1.9,0.9-2.5,2.4L39.6,27.3z"/>
		<path class="st0" d="M34.3,32.1L34.3,32.1l0.1,0.3l-0.2,0.3l-0.1,0.1L34,32.9l-0.5,0.4L33,33.7l-0.4,0.3l-0.3,0.3
			c-0.3,0.3-0.6,0.7-0.8,1.2c0,0.1-0.1,0.2-0.1,0.3c-0.1,0.2-0.1,0.4,0,0.6c0,0.1,0,0.2,0.1,0.4c0,0.2,0.1,0.3,0.1,0.5
			s0.1,0.3,0.2,0.5l0.2,0.4l0.1,0.2c0.1,0.2,0.1,0.3,0.2,0.5c0.1,0.3,0.2,0.5,0.2,0.8c0.1,0.3,0.1,0.7,0.1,1c0,0.2-0.1,0.5-0.1,0.7
			L32,41.5l-0.1-0.2v-0.1c0-0.1,0-0.2,0-0.3c0-0.2,0-0.3,0-0.5c0-0.4-0.1-0.7-0.2-1.1c-0.2-0.6-0.4-1.1-0.6-1.6L31,37.5
			c-0.1-0.3-0.2-0.5-0.3-0.8c-0.1-0.2-0.1-0.4-0.1-0.7c0-0.1,0-0.2,0-0.3c0-0.1,0-0.2,0-0.2c0-0.1,0.1-0.2,0.1-0.3
			c0-0.1,0.1-0.2,0.1-0.2c0.2-0.5,0.6-0.9,0.9-1.3l0.2-0.2l0.4-0.4l0.5-0.5l0.7-0.6l0,0l0.3-0.1l0.3,0.2L34.3,32.1z M33.8,30.7
			l0.2,0.2l0,0v0.3l-0.2,0.2h-0.1h-0.1L33,31.6l-0.3,0.1c-0.3,0.1-0.5,0.2-0.8,0.3c-0.2,0.1-0.5,0.2-0.7,0.3
			c-0.1,0.1-0.3,0.2-0.4,0.3c-0.1,0.1-0.2,0.2-0.2,0.3c-0.1,0.1-0.1,0.3-0.2,0.4c-0.1,0.2-0.1,0.3-0.2,0.5l-0.1,0.5l0,0.2
			c-0.1,0.3-0.2,0.5-0.3,0.8c-0.1,0.1-0.1,0.3-0.2,0.4l-0.1,0.2h-0.3v-0.3l0,0c0.1-0.1,0.1-0.2,0.2-0.3c0.1-0.3,0.2-0.7,0.3-1
			l0.1-0.6v-0.2c0.1-0.4,0.2-0.8,0.4-1.1l0.1-0.2c0.1-0.1,0.2-0.2,0.3-0.3c0.2-0.1,0.4-0.3,0.6-0.4l0.2-0.1l0.3-0.1l0.4-0.2l0.5-0.2
			l0.7-0.3l0,0L33.8,30.7L33.8,30.7z M33,24.7c0,0.3,0,0.5-0.1,0.8c0,0.3-0.1,0.6-0.2,0.9v0.1c0,0.2-0.1,0.4-0.1,0.5
			c0,0.1,0,0.3,0,0.4c0,0.1,0.1,0.2,0.1,0.3c0.1,0.2,0.2,0.3,0.3,0.5c0.1,0.2,0.3,0.4,0.5,0.5c0.2,0.2,0.4,0.4,0.7,0.5l0,0l0.1,0.2
			l-0.1,0.2l0,0l-0.2,0.1l-0.2-0.1l-0.1-0.1c-0.1-0.1-0.3-0.2-0.4-0.4L33,29l-0.2-0.3c-0.2-0.2-0.3-0.5-0.5-0.7
			c-0.1-0.2-0.1-0.3-0.2-0.5c0-0.1,0-0.2,0-0.4c0-0.2,0-0.5,0.1-0.7c0.1-0.2,0.1-0.5,0.2-0.7v-0.1c0-0.1,0.1-0.3,0.1-0.4
			c0-0.2,0-0.3,0.1-0.5l0.2-0.1L33,24.7L33,24.7z"/>
		<path class="st0" d="M39.8,32.1L39.8,32.1l-0.1,0.3l0.2,0.3l0.1,0.1l0.1,0.1l0.5,0.4l0.5,0.4l0.4,0.3l0.3,0.3
			c0.3,0.3,0.6,0.7,0.8,1.2c0,0.1,0.1,0.2,0.1,0.3c0.1,0.2,0.1,0.4,0,0.6c0,0.1,0,0.2-0.1,0.4c0,0.2-0.1,0.3-0.1,0.5
			s-0.1,0.3-0.2,0.5l-0.2,0.4l-0.1,0.2c-0.1,0.2-0.1,0.3-0.2,0.5c-0.1,0.3-0.2,0.5-0.2,0.8c-0.1,0.3-0.1,0.7-0.1,1
			c0,0.2,0.1,0.5,0.1,0.7l0.2,0.2l0.1-0.2v-0.1c0-0.1,0-0.2,0-0.3c0-0.2,0-0.3,0-0.5c0-0.4,0.1-0.7,0.2-1.1c0.2-0.6,0.3-1.1,0.6-1.6
			l0.1-0.2c0.1-0.3,0.2-0.5,0.3-0.8c0.1-0.2,0.1-0.4,0.1-0.7c0-0.1,0-0.2,0-0.3c0-0.1,0-0.2,0-0.2c0-0.1-0.1-0.2-0.1-0.3
			c0-0.1-0.1-0.2-0.1-0.2c-0.2-0.5-0.6-0.9-0.9-1.3l-0.2-0.2l-0.4-0.4l-0.5-0.5l-0.7-0.6l0,0L40.1,32L39.8,32.1L39.8,32.1z
			 M40.4,30.7l-0.2,0.2l0,0v0.3l0.2,0.2h0.1h0.1l0.5,0.2l0.3,0.1c0.3,0.1,0.5,0.2,0.8,0.3c0.2,0.1,0.5,0.2,0.7,0.3
			c0.1,0.1,0.3,0.2,0.4,0.3c0.1,0.1,0.2,0.2,0.2,0.3c0.1,0.1,0.1,0.3,0.2,0.4c0.1,0.2,0.1,0.3,0.2,0.5l0.1,0.5l0,0.2
			c0.1,0.3,0.2,0.5,0.3,0.8c0.1,0.1,0.1,0.3,0.2,0.4l0.1,0.2h0.3v-0.3l0,0c-0.1-0.1-0.1-0.2-0.2-0.3c-0.1-0.3-0.2-0.7-0.3-1
			l-0.1-0.6v-0.2c-0.1-0.4-0.2-0.8-0.4-1.1l-0.1-0.2c-0.1-0.1-0.2-0.2-0.3-0.3c-0.2-0.1-0.4-0.3-0.6-0.4l-0.2-0.1l-0.3-0.1L42,31.1
			l-0.5-0.2l-0.7-0.3l0,0L40.4,30.7L40.4,30.7z M41.2,24.7c0,0.3,0,0.5,0.1,0.8c0,0.3,0.1,0.6,0.2,0.9v0.1c0,0.2,0.1,0.4,0.1,0.5
			c0,0.1,0,0.3,0,0.4c0,0.1-0.1,0.2-0.1,0.3c-0.1,0.2-0.2,0.3-0.3,0.5c-0.1,0.2-0.3,0.4-0.5,0.5c-0.2,0.2-0.4,0.4-0.7,0.5l0,0
			l-0.1,0.2l0.1,0.2l0,0l0.2,0.1l0.2-0.1l0.1-0.1c0.1-0.1,0.3-0.2,0.4-0.4l0.3-0.3l0.2-0.3c0.2-0.2,0.3-0.5,0.5-0.7
			c0.1-0.2,0.1-0.3,0.2-0.5c0-0.1,0-0.2,0-0.4c0-0.2,0-0.5-0.1-0.7c-0.1-0.2-0.1-0.5-0.2-0.7v-0.1c0-0.1-0.1-0.3-0.1-0.4
			c0-0.2,0-0.3-0.1-0.5l-0.2-0.1L41.2,24.7L41.2,24.7z"/>
		<path class="st0" d="M36.5,28.2v11.6c-2-0.5-3.6-1.6-3.6-5.8c0-2,0.4-4,1.2-5.8H36.5z M37.6,28.2H40c0.8,1.8,1.3,3.8,1.2,5.8
			c0,4.2-1.6,5.3-3.7,5.8L37.6,28.2z"/>
	</g>
</g>
</svg>
